<svg width="34" height="34" viewBox="0 0 34 34" fill="none" xmlns="http://www.w3.org/2000/svg">
<path d="M15.2531 5.29351C14.3511 5.78964 7.6758 9.26259 6.99925 9.84893C6.3227 10.4353 6.09718 11.0667 6.05208 11.8335C6.00698 12.6002 5.96187 22.4327 6.05208 23.4701C6.14229 24.5075 6.77373 25.9057 8.62296 25.9508C10.4722 25.9959 23.958 26.1763 24.9954 25.9508C26.0328 25.7252 26.9349 24.6879 26.98 23.4701C27.0251 22.2523 26.98 12.4198 26.98 11.8335C26.98 11.2471 26.7995 10.2549 26.1681 9.84893C25.5367 9.443 18.0495 5.56413 17.5083 5.29351C16.967 5.02289 16.1552 4.79737 15.2531 5.29351Z" fill="#82AAE3"/>
<rect x="14.1667" y="20.1667" width="4.66667" height="2.33333" rx="1.16667" fill="white"/>
</svg>
